<mxfile host="Electron" modified="2024-05-16T09:18:18.540Z" agent="Mozilla/5.0 (Windows NT 10.0; Win64; x64) AppleWebKit/537.36 (KHTML, like Gecko) draw.io/24.4.0 Chrome/120.0.6099.109 Electron/28.1.0 Safari/537.36" etag="K4l6Xkh4S7B8rFD8bnJb" version="24.4.0" type="device">
  <diagram name="Page-1" id="6ZfcrU4uDakl3jTDbQQc">
    <mxGraphModel dx="954" dy="665" grid="1" gridSize="10" guides="1" tooltips="1" connect="1" arrows="1" fold="1" page="1" pageScale="1" pageWidth="850" pageHeight="1100" math="0" shadow="0">
      <root>
        <mxCell id="0" />
        <mxCell id="1" parent="0" />
        <mxCell id="AdiQeJI3ixuq6RGuVJTR-10" style="edgeStyle=orthogonalEdgeStyle;rounded=0;orthogonalLoop=1;jettySize=auto;html=1;strokeWidth=1;endSize=14;" edge="1" parent="1" source="AdiQeJI3ixuq6RGuVJTR-1">
          <mxGeometry relative="1" as="geometry">
            <mxPoint x="420" y="240" as="targetPoint" />
          </mxGeometry>
        </mxCell>
        <mxCell id="AdiQeJI3ixuq6RGuVJTR-1" value="" style="rounded=0;whiteSpace=wrap;html=1;" vertex="1" parent="1">
          <mxGeometry x="440" y="340" width="85" height="80" as="geometry" />
        </mxCell>
        <mxCell id="AdiQeJI3ixuq6RGuVJTR-2" value="" style="endArrow=none;html=1;rounded=0;" edge="1" parent="1">
          <mxGeometry width="50" height="50" relative="1" as="geometry">
            <mxPoint x="280" y="200" as="sourcePoint" />
            <mxPoint x="600" y="200" as="targetPoint" />
          </mxGeometry>
        </mxCell>
        <mxCell id="AdiQeJI3ixuq6RGuVJTR-3" value="" style="endArrow=none;html=1;rounded=0;" edge="1" parent="1">
          <mxGeometry width="50" height="50" relative="1" as="geometry">
            <mxPoint x="280" y="240" as="sourcePoint" />
            <mxPoint x="600" y="240" as="targetPoint" />
          </mxGeometry>
        </mxCell>
        <mxCell id="AdiQeJI3ixuq6RGuVJTR-4" value="" style="endArrow=none;html=1;rounded=0;" edge="1" parent="1">
          <mxGeometry width="50" height="50" relative="1" as="geometry">
            <mxPoint x="320" y="240" as="sourcePoint" />
            <mxPoint x="320" y="200" as="targetPoint" />
          </mxGeometry>
        </mxCell>
        <mxCell id="AdiQeJI3ixuq6RGuVJTR-5" value="" style="endArrow=none;html=1;rounded=0;" edge="1" parent="1">
          <mxGeometry width="50" height="50" relative="1" as="geometry">
            <mxPoint x="360" y="240" as="sourcePoint" />
            <mxPoint x="360" y="200" as="targetPoint" />
          </mxGeometry>
        </mxCell>
        <mxCell id="AdiQeJI3ixuq6RGuVJTR-6" value="" style="endArrow=none;html=1;rounded=0;" edge="1" parent="1">
          <mxGeometry width="50" height="50" relative="1" as="geometry">
            <mxPoint x="400" y="240" as="sourcePoint" />
            <mxPoint x="400" y="200" as="targetPoint" />
          </mxGeometry>
        </mxCell>
        <mxCell id="AdiQeJI3ixuq6RGuVJTR-7" value="" style="endArrow=none;html=1;rounded=0;" edge="1" parent="1">
          <mxGeometry width="50" height="50" relative="1" as="geometry">
            <mxPoint x="440" y="240" as="sourcePoint" />
            <mxPoint x="440" y="200" as="targetPoint" />
          </mxGeometry>
        </mxCell>
        <mxCell id="AdiQeJI3ixuq6RGuVJTR-8" value="" style="endArrow=none;html=1;rounded=0;" edge="1" parent="1">
          <mxGeometry width="50" height="50" relative="1" as="geometry">
            <mxPoint x="480" y="240" as="sourcePoint" />
            <mxPoint x="480" y="200" as="targetPoint" />
          </mxGeometry>
        </mxCell>
        <mxCell id="AdiQeJI3ixuq6RGuVJTR-9" value="" style="endArrow=none;html=1;rounded=0;" edge="1" parent="1">
          <mxGeometry width="50" height="50" relative="1" as="geometry">
            <mxPoint x="520" y="240" as="sourcePoint" />
            <mxPoint x="520" y="200" as="targetPoint" />
          </mxGeometry>
        </mxCell>
        <mxCell id="AdiQeJI3ixuq6RGuVJTR-11" value="..." style="text;html=1;align=center;verticalAlign=middle;resizable=0;points=[];autosize=1;strokeColor=none;fillColor=none;fontSize=35;" vertex="1" parent="1">
          <mxGeometry x="275" y="190" width="50" height="60" as="geometry" />
        </mxCell>
        <mxCell id="AdiQeJI3ixuq6RGuVJTR-12" value="..." style="text;html=1;align=center;verticalAlign=middle;resizable=0;points=[];autosize=1;strokeColor=none;fillColor=none;fontSize=35;" vertex="1" parent="1">
          <mxGeometry x="555" y="190" width="50" height="60" as="geometry" />
        </mxCell>
        <mxCell id="AdiQeJI3ixuq6RGuVJTR-13" value="&lt;span style=&quot;font-weight: normal; font-size: 35px;&quot;&gt;B&lt;/span&gt;" style="text;html=1;align=center;verticalAlign=middle;resizable=0;points=[];autosize=1;strokeColor=none;fillColor=none;fontSize=35;fontStyle=1" vertex="1" parent="1">
          <mxGeometry x="315" y="190" width="50" height="60" as="geometry" />
        </mxCell>
        <mxCell id="AdiQeJI3ixuq6RGuVJTR-14" value="u" style="text;html=1;align=center;verticalAlign=middle;resizable=0;points=[];autosize=1;strokeColor=none;fillColor=none;fontSize=35;" vertex="1" parent="1">
          <mxGeometry x="360" y="190" width="40" height="60" as="geometry" />
        </mxCell>
        <mxCell id="AdiQeJI3ixuq6RGuVJTR-15" value="s" style="text;html=1;align=center;verticalAlign=middle;resizable=0;points=[];autosize=1;strokeColor=none;fillColor=none;fontSize=35;" vertex="1" parent="1">
          <mxGeometry x="400" y="190" width="40" height="60" as="geometry" />
        </mxCell>
        <mxCell id="AdiQeJI3ixuq6RGuVJTR-16" value="a" style="text;html=1;align=center;verticalAlign=middle;resizable=0;points=[];autosize=1;strokeColor=none;fillColor=none;fontSize=35;" vertex="1" parent="1">
          <mxGeometry x="440" y="190" width="40" height="60" as="geometry" />
        </mxCell>
        <mxCell id="AdiQeJI3ixuq6RGuVJTR-17" value="v" style="text;html=1;align=center;verticalAlign=middle;resizable=0;points=[];autosize=1;strokeColor=none;fillColor=none;fontSize=35;" vertex="1" parent="1">
          <mxGeometry x="480" y="190" width="40" height="60" as="geometry" />
        </mxCell>
        <mxCell id="AdiQeJI3ixuq6RGuVJTR-18" value="&lt;span style=&quot;font-weight: normal; font-size: 35px;&quot;&gt;B&lt;/span&gt;" style="text;html=1;align=center;verticalAlign=middle;resizable=0;points=[];autosize=1;strokeColor=none;fillColor=none;fontSize=35;fontStyle=1" vertex="1" parent="1">
          <mxGeometry x="515" y="190" width="50" height="60" as="geometry" />
        </mxCell>
        <mxCell id="AdiQeJI3ixuq6RGuVJTR-19" value="лента &lt;b style=&quot;font-size: 28px;&quot;&gt;t&lt;/b&gt;" style="text;html=1;align=center;verticalAlign=middle;resizable=0;points=[];autosize=1;strokeColor=none;fillColor=none;fontSize=28;" vertex="1" parent="1">
          <mxGeometry x="600" y="195" width="120" height="50" as="geometry" />
        </mxCell>
        <mxCell id="AdiQeJI3ixuq6RGuVJTR-20" value="читающая/записывающая головка &lt;b style=&quot;font-size: 18px;&quot;&gt;h&lt;/b&gt;" style="text;html=1;align=center;verticalAlign=middle;whiteSpace=wrap;rounded=0;fontSize=18;" vertex="1" parent="1">
          <mxGeometry x="460" y="270" width="60" height="30" as="geometry" />
        </mxCell>
        <mxCell id="AdiQeJI3ixuq6RGuVJTR-21" value="&lt;b style=&quot;font-size: 26px;&quot;&gt;M&lt;/b&gt;" style="text;html=1;align=center;verticalAlign=middle;resizable=0;points=[];autosize=1;strokeColor=none;fillColor=none;fontSize=26;" vertex="1" parent="1">
          <mxGeometry x="435" y="340" width="50" height="40" as="geometry" />
        </mxCell>
        <mxCell id="AdiQeJI3ixuq6RGuVJTR-22" value="q" style="text;html=1;align=center;verticalAlign=middle;resizable=0;points=[];autosize=1;strokeColor=none;fillColor=none;fontSize=22;" vertex="1" parent="1">
          <mxGeometry x="490" y="380" width="40" height="40" as="geometry" />
        </mxCell>
        <mxCell id="AdiQeJI3ixuq6RGuVJTR-24" value="Устройство управления" style="text;html=1;align=center;verticalAlign=middle;whiteSpace=wrap;rounded=0;fontSize=18;" vertex="1" parent="1">
          <mxGeometry x="560" y="365" width="60" height="30" as="geometry" />
        </mxCell>
      </root>
    </mxGraphModel>
  </diagram>
</mxfile>
